<mxfile host="app.diagrams.net" modified="2023-04-26T05:02:16.865Z" agent="Mozilla/5.0 (Windows NT 10.0; Win64; x64) AppleWebKit/537.36 (KHTML, like Gecko) Chrome/112.0.0.0 Safari/537.36" etag="6y5jznQOuoAmEk4okanR" version="21.2.2" type="device">
  <diagram id="YgLfHfXpS3L3gZIftreA" name="Page-1">
    <mxGraphModel dx="1800" dy="1187" grid="1" gridSize="50" guides="1" tooltips="1" connect="1" arrows="1" fold="1" page="0" pageScale="1" pageWidth="850" pageHeight="1100" math="0" shadow="0">
      <root>
        <mxCell id="0" />
        <mxCell id="1" parent="0" />
        <mxCell id="p2W-4YZlFGsu2hW92lGW-5" value="" style="shape=umlLifeline;participant=umlActor;perimeter=lifelinePerimeter;whiteSpace=wrap;html=1;container=1;collapsible=0;recursiveResize=0;verticalAlign=top;spacingTop=36;outlineConnect=0;rounded=0;strokeWidth=3;fontSize=18;labelBackgroundColor=none;labelBorderColor=none;" parent="1" vertex="1">
          <mxGeometry x="0.5" width="20" height="400" as="geometry" />
        </mxCell>
        <mxCell id="_Z-r2uQcYbL1dPiRmfTQ-1" value="" style="shape=umlLifeline;participant=umlBoundary;perimeter=lifelinePerimeter;whiteSpace=wrap;html=1;container=1;collapsible=0;recursiveResize=0;verticalAlign=top;spacingTop=36;outlineConnect=0;rounded=0;strokeWidth=3;fontSize=18;labelBackgroundColor=none;labelBorderColor=none;" parent="1" vertex="1">
          <mxGeometry x="250" width="50" height="400" as="geometry" />
        </mxCell>
        <mxCell id="_Z-r2uQcYbL1dPiRmfTQ-2" value="" style="shape=umlLifeline;participant=umlControl;perimeter=lifelinePerimeter;whiteSpace=wrap;html=1;container=1;collapsible=0;recursiveResize=0;verticalAlign=top;spacingTop=36;outlineConnect=0;rounded=0;strokeWidth=3;fontSize=18;labelBackgroundColor=none;labelBorderColor=none;" parent="1" vertex="1">
          <mxGeometry x="500.5" y="2" width="40" height="398" as="geometry" />
        </mxCell>
        <mxCell id="_Z-r2uQcYbL1dPiRmfTQ-3" value="" style="shape=umlLifeline;participant=umlEntity;perimeter=lifelinePerimeter;whiteSpace=wrap;html=1;container=1;collapsible=0;recursiveResize=0;verticalAlign=top;spacingTop=36;outlineConnect=0;rounded=0;strokeWidth=3;fontSize=18;labelBackgroundColor=none;labelBorderColor=none;" parent="1" vertex="1">
          <mxGeometry x="700" width="40" height="400" as="geometry" />
        </mxCell>
        <mxCell id="_Z-r2uQcYbL1dPiRmfTQ-5" value="" style="shape=umlLifeline;participant=umlEntity;perimeter=lifelinePerimeter;whiteSpace=wrap;html=1;container=1;collapsible=0;recursiveResize=0;verticalAlign=top;spacingTop=36;outlineConnect=0;rounded=0;strokeWidth=3;fontSize=18;labelBackgroundColor=none;labelBorderColor=none;" parent="1" vertex="1">
          <mxGeometry x="1100" y="2" width="40" height="398" as="geometry" />
        </mxCell>
        <mxCell id="_Z-r2uQcYbL1dPiRmfTQ-7" value="" style="shape=umlLifeline;participant=umlEntity;perimeter=lifelinePerimeter;whiteSpace=wrap;html=1;container=1;collapsible=0;recursiveResize=0;verticalAlign=top;spacingTop=36;outlineConnect=0;fillColor=default;strokeColor=default;rounded=0;strokeWidth=3;fontSize=18;labelBackgroundColor=none;labelBorderColor=none;" parent="1" vertex="1">
          <mxGeometry x="905" y="2" width="40" height="398" as="geometry" />
        </mxCell>
        <mxCell id="_Z-r2uQcYbL1dPiRmfTQ-9" value="Actor" style="text;html=1;align=center;verticalAlign=middle;resizable=0;points=[];autosize=1;strokeColor=none;fillColor=none;fontSize=18;strokeWidth=3;" parent="1" vertex="1">
          <mxGeometry x="-39.5" y="-59" width="100" height="50" as="geometry" />
        </mxCell>
        <mxCell id="_Z-r2uQcYbL1dPiRmfTQ-10" value=":JoinTrainingCourseUI" style="text;html=1;align=center;verticalAlign=middle;resizable=0;points=[];autosize=1;strokeColor=none;fillColor=none;fontSize=18;strokeWidth=3;fontStyle=4" parent="1" vertex="1">
          <mxGeometry x="175.5" y="-59" width="200" height="50" as="geometry" />
        </mxCell>
        <mxCell id="_Z-r2uQcYbL1dPiRmfTQ-11" value=":JoinTrainingCourse" style="text;html=1;align=center;verticalAlign=middle;resizable=0;points=[];autosize=1;strokeColor=none;fillColor=none;fontSize=18;strokeWidth=3;fontStyle=4" parent="1" vertex="1">
          <mxGeometry x="420.5" y="-59" width="200" height="50" as="geometry" />
        </mxCell>
        <mxCell id="_Z-r2uQcYbL1dPiRmfTQ-12" value=":Courses" style="text;html=1;align=center;verticalAlign=middle;resizable=0;points=[];autosize=1;strokeColor=none;fillColor=none;fontSize=18;strokeWidth=3;fontStyle=4" parent="1" vertex="1">
          <mxGeometry x="670.5" y="-59" width="100" height="50" as="geometry" />
        </mxCell>
        <mxCell id="_Z-r2uQcYbL1dPiRmfTQ-14" value=":Payment" style="text;html=1;align=center;verticalAlign=middle;resizable=0;points=[];autosize=1;strokeColor=none;fillColor=none;fontSize=18;strokeWidth=3;fontStyle=4" parent="1" vertex="1">
          <mxGeometry x="1070" y="-59" width="100" height="50" as="geometry" />
        </mxCell>
        <mxCell id="_Z-r2uQcYbL1dPiRmfTQ-16" value=":Trainee" style="text;html=1;align=center;verticalAlign=middle;resizable=0;points=[];autosize=1;strokeColor=none;fillColor=none;fontSize=18;strokeWidth=3;fontStyle=4" parent="1" vertex="1">
          <mxGeometry x="875" y="-59" width="100" height="50" as="geometry" />
        </mxCell>
      </root>
    </mxGraphModel>
  </diagram>
</mxfile>
